<svg width="4634" height="2650" xmlns="http://www.w3.org/2000/svg" xmlns:xlink="http://www.w3.org/1999/xlink" xml:space="preserve" overflow="hidden"><g transform="translate(-5613 -2120)"><path d="M8169.27 2488.4C8144.94 2359.29 8270.22 2240.39 8449.1 2222.83 8521.58 2215.72 8595.27 2226.35 8658.39 2253.04 8725.26 2162.05 8881.54 2127.47 9007.45 2175.8 9029.46 2184.26 9049.67 2194.97 9067.43 2207.61 9119.52 2132.18 9246.39 2101.54 9350.8 2139.16 9379.7 2149.58 9404.91 2164.64 9424.5 2183.19 9508.45 2111.86 9656.8 2103.05 9755.84 2163.51 9797.47 2188.92 9825.53 2223.97 9835.2 2262.64 9972.76 2289.73 10053.9 2392.35 10016.4 2491.84 10013.3 2500.21 10009.3 2508.4 10004.6 2516.37 10114.9 2620.04 10087.9 2768.63 9944.31 2848.26 9899.59 2873.04 9846.78 2889.09 9790.97 2894.85 9789.73 3006.39 9663.37 3096.08 9508.73 3095.18 9457.06 3094.88 9406.52 3084.28 9362.69 3064.54 9310.39 3189.59 9127.94 3260.26 8955.19 3222.4 8882.79 3206.54 8820.24 3172.98 8778.2 3127.46 8601.33 3204.47 8371.75 3163.05 8265.42 3034.94 8264.08 3033.32 8262.77 3031.7 8261.48 3030.06 8145.72 3039.84 8040.86 2980.22 8027.28 2896.88 8020.04 2852.47 8040.35 2808.01 8082.8 2775.36 7982.57 2732.76 7948.9 2639.27 8007.6 2566.54 8041.46 2524.58 8100.85 2496.84 8167.51 2491.85Z" stroke="#000000" stroke-width="3.4375" stroke-linejoin="round" stroke-miterlimit="10" fill="#C6D9F1" fill-rule="evenodd"/><path d="M8207.65 2791.5C8164.86 2793.92 8122.08 2786.78 8085.04 2771.04M8315.83 3015.4C8298.63 3020.35 8280.59 3023.64 8262.19 3025.19M8778.08 3122.99C8765.14 3108.98 8754.3 3094 8745.76 3078.32M9375.81 3011.6C9373.9 3028.22 9369.58 3044.65 9362.9 3060.62M9632.44 2708.76C9729.46 2742.84 9790.68 2814.11 9789.82 2891.94M10003.6 2513.66C9987.93 2540.16 9963.94 2563.67 9933.56 2582.35M9835.49 2258.79C9838.17 2269.5 9839.4 2280.36 9839.19 2291.23M9387.96 2220.95C9397.09 2205.99 9409.18 2192.05 9423.86 2179.58M9052.19 2240.67C9055.91 2228.3 9061.75 2216.32 9069.57 2204.99M8658.14 2252.79C8680.98 2262.44 8702.1 2274.07 8721.06 2287.4M8180.26 2524.82C8175.27 2512.91 8171.6 2500.73 8169.28 2488.41" stroke="#000000" stroke-width="3.4375" stroke-linejoin="round" stroke-miterlimit="10" fill="none" fill-rule="evenodd"/><path d="M0 64.9962 274.008 64.9962 274.008 0 404 146.5 274.008 293 274.008 228.004 0 228.004Z" fill="#376092" fill-rule="evenodd" transform="matrix(-1 0 0 1 8836 4248)"/><text fill="#F2F2F2" font-family="Arial,Arial_MSFontService,sans-serif" font-weight="400" font-size="73" transform="matrix(1 0 0 1 8558.15 4422)">Data</text><text fill="#F2F2F2" font-family="Arial,Arial_MSFontService,sans-serif" font-weight="400" font-size="49" transform="matrix(1 0 0 1 8712.83 4439)">n</text><text fill="#F2F2F2" font-family="Arial,Arial_MSFontService,sans-serif" font-weight="400" font-size="49" transform="matrix(1 0 0 1 8739.76 4439)">-</text><text fill="#F2F2F2" font-family="Arial,Arial_MSFontService,sans-serif" font-weight="400" font-size="49" transform="matrix(1 0 0 1 8755.8 4439)">1</text><path d="M9343 3625 9575.01 3625 9575.01 3560 9705 3706.5 9575.01 3853 9575.01 3788 9343 3788Z" fill="#4990D7" fill-rule="evenodd"/><text fill="#F2F2F2" font-family="Arial,Arial_MSFontService,sans-serif" font-weight="400" font-size="73" transform="matrix(1 0 0 1 9397.46 3734)">Data</text><text fill="#F2F2F2" font-family="Arial,Arial_MSFontService,sans-serif" font-style="italic" font-weight="400" font-size="49" transform="matrix(1 0 0 1 9552.15 3751)">n</text><path d="M8840 3596.33C8840 3565.77 8864.77 3541 8895.33 3541L9280.67 3541C9311.23 3541 9336 3565.77 9336 3596.33L9336 3817.67C9336 3848.23 9311.23 3873 9280.67 3873L8895.33 3873C8864.77 3873 8840 3848.23 8840 3817.67Z" stroke="#604A7B" stroke-width="13.75" stroke-linejoin="round" stroke-miterlimit="10" fill="none" fill-rule="evenodd"/><text font-family="Arial,Arial_MSFontService,sans-serif" font-weight="700" font-size="64" transform="matrix(1 0 0 1 8901.1 3730)">Transform </text><text font-family="Arial,Arial_MSFontService,sans-serif" font-style="italic" font-weight="700" font-size="64" transform="matrix(1 0 0 1 9235.68 3730)">n</text><path d="M7889 3625 8129.01 3625 8129.01 3560 8259 3706.5 8129.01 3853 8129.01 3788 7889 3788Z" fill="#254061" fill-rule="evenodd"/><text fill="#F2F2F2" font-family="Arial,Arial_MSFontService,sans-serif" font-weight="400" font-size="73" transform="matrix(1 0 0 1 7946.96 3734)">Data</text><text fill="#F2F2F2" font-family="Arial,Arial_MSFontService,sans-serif" font-weight="400" font-size="49" transform="matrix(1 0 0 1 8101.65 3751)">2</text><path d="M7391 3596.33C7391 3565.77 7415.77 3541 7446.33 3541L7832.67 3541C7863.23 3541 7888 3565.77 7888 3596.33L7888 3817.67C7888 3848.23 7863.23 3873 7832.67 3873L7446.33 3873C7415.77 3873 7391 3848.23 7391 3817.67Z" stroke="#604A7B" stroke-width="13.75" stroke-linejoin="round" stroke-miterlimit="10" fill="none" fill-rule="evenodd"/><text font-family="Arial,Arial_MSFontService,sans-serif" font-weight="700" font-size="64" transform="matrix(1 0 0 1 7454.6 3730)">Transform 2</text><path d="M7030 3625 7260.01 3625 7260.01 3560 7390 3706.5 7260.01 3853 7260.01 3788 7030 3788Z" fill="#C4BD97" fill-rule="evenodd"/><text fill="#F2F2F2" font-family="Arial,Arial_MSFontService,sans-serif" font-weight="400" font-size="73" transform="matrix(1 0 0 1 7082.92 3734)">Data</text><text fill="#F2F2F2" font-family="Arial,Arial_MSFontService,sans-serif" font-weight="400" font-size="49" transform="matrix(1 0 0 1 7237.6 3751)">1</text><path d="M6527 3596.33C6527 3565.77 6551.77 3541 6582.33 3541L6968.67 3541C6999.23 3541 7024 3565.77 7024 3596.33L7024 3817.67C7024 3848.23 6999.23 3873 6968.67 3873L6582.33 3873C6551.77 3873 6527 3848.23 6527 3817.67Z" stroke="#604A7B" stroke-width="13.75" stroke-linejoin="round" stroke-miterlimit="10" fill="none" fill-rule="evenodd"/><text font-family="Arial,Arial_MSFontService,sans-serif" font-weight="700" font-size="64" transform="matrix(1 0 0 1 6590.22 3730)">Transform 1</text><path d="M6529 4285.17C6529 4254.7 6553.7 4230 6584.17 4230L6970.83 4230C7001.3 4230 7026 4254.7 7026 4285.17L7026 4505.83C7026 4536.3 7001.3 4561 6970.83 4561L6584.17 4561C6553.7 4561 6529 4536.3 6529 4505.83Z" stroke="#604A7B" stroke-width="13.75" stroke-linejoin="round" stroke-miterlimit="10" fill="none" fill-rule="evenodd"/><text font-family="Arial,Arial_MSFontService,sans-serif" font-weight="700" font-size="64" transform="matrix(1 0 0 1 6665.56 4380)">Inverse </text><text font-family="Arial,Arial_MSFontService,sans-serif" font-weight="700" font-size="64" transform="matrix(1 0 0 1 6592.51 4457)">Transform 1</text><path d="M0 64.9961 232.008 64.9961 232.008 0 362 146.5 232.008 293 232.008 228.004 0 228.004Z" fill="#C4BD97" fill-rule="evenodd" transform="matrix(-1 0 0 1 7392 4250)"/><text fill="#F2F2F2" font-family="Arial,Arial_MSFontService,sans-serif" font-weight="400" font-size="73" transform="matrix(1 0 0 1 7155.94 4423)">Data</text><text fill="#F2F2F2" font-family="Arial,Arial_MSFontService,sans-serif" font-weight="400" font-size="49" transform="matrix(1 0 0 1 7310.63 4440)">1</text><path d="M7394 4285.17C7394 4254.7 7418.7 4230 7449.17 4230L7835.83 4230C7866.3 4230 7891 4254.7 7891 4285.17L7891 4505.83C7891 4536.3 7866.3 4561 7835.83 4561L7449.17 4561C7418.7 4561 7394 4536.3 7394 4505.83Z" stroke="#604A7B" stroke-width="13.75" stroke-linejoin="round" stroke-miterlimit="10" fill="none" fill-rule="evenodd"/><text font-family="Arial,Arial_MSFontService,sans-serif" font-weight="700" font-size="64" transform="matrix(1 0 0 1 7530.24 4380)">Inverse </text><text font-family="Arial,Arial_MSFontService,sans-serif" font-weight="700" font-size="64" transform="matrix(1 0 0 1 7457.18 4457)">Transform 2</text><path d="M0 64.9961 240.007 64.9961 240.007 0 370 146.5 240.007 293 240.007 228.004 0 228.004Z" fill="#254061" fill-rule="evenodd" transform="matrix(-1 0 0 1 8259 4250)"/><text fill="#F2F2F2" font-family="Arial,Arial_MSFontService,sans-serif" font-weight="400" font-size="73" transform="matrix(1 0 0 1 8019.3 4423)">Data</text><text fill="#F2F2F2" font-family="Arial,Arial_MSFontService,sans-serif" font-weight="400" font-size="49" transform="matrix(1 0 0 1 8173.99 4440)">2</text><path d="M8840 4285.17C8840 4254.7 8864.7 4230 8895.17 4230L9280.83 4230C9311.3 4230 9336 4254.7 9336 4285.17L9336 4505.83C9336 4536.3 9311.3 4561 9280.83 4561L8895.17 4561C8864.7 4561 8840 4536.3 8840 4505.83Z" stroke="#604A7B" stroke-width="13.75" stroke-linejoin="round" stroke-miterlimit="10" fill="none" fill-rule="evenodd"/><text font-family="Arial,Arial_MSFontService,sans-serif" font-weight="700" font-size="64" transform="matrix(1 0 0 1 8975.87 4380)">Inverse </text><text font-family="Arial,Arial_MSFontService,sans-serif" font-weight="700" font-size="64" transform="matrix(1 0 0 1 8901.1 4457)">Transform </text><text font-family="Arial,Arial_MSFontService,sans-serif" font-style="italic" font-weight="700" font-size="64" transform="matrix(1 0 0 1 9235.68 4457)">n</text><rect x="5620" y="3567" width="532" height="280" stroke="#948A54" stroke-width="13.75" stroke-linejoin="round" stroke-miterlimit="10" fill="#FFFFFF"/><text font-family="Arial,Arial_MSFontService,sans-serif" font-weight="700" font-size="64" transform="matrix(1 0 0 1 5687.04 3730)">Original Data</text><path d="M6158 3625 6396.01 3625 6396.01 3560 6526 3706.5 6396.01 3853 6396.01 3788 6158 3788Z" fill="#948A54" fill-rule="evenodd"/><text fill="#F2F2F2" font-family="Arial,Arial_MSFontService,sans-serif" font-weight="400" font-size="73" transform="matrix(1 0 0 1 6214.64 3734)">Data</text><text fill="#F2F2F2" font-family="Arial,Arial_MSFontService,sans-serif" font-weight="400" font-size="49" transform="matrix(1 0 0 1 6369.33 3751)">0</text><path d="M0 64.9959 575.008 64.9959 575.008 0 705 146.5 575.008 293 575.008 228.004 0 228.004Z" fill="#4990D7" fill-rule="evenodd" transform="matrix(-1 0 0 1 10041 4250)"/><text fill="#F2F2F2" font-family="Arial,Arial_MSFontService,sans-serif" font-weight="400" font-size="73" transform="matrix(1 0 0 1 9441.55 4423)">Data</text><text fill="#F2F2F2" font-family="Arial,Arial_MSFontService,sans-serif" font-style="italic" font-weight="400" font-size="49" transform="matrix(1 0 0 1 9596.23 4440)">n</text><rect x="9908" y="3852" width="133" height="539" fill="#4990D7"/><text font-family="Arial,Arial_MSFontService,sans-serif" font-weight="400" font-size="74" transform="matrix(1 0 0 1 7551.14 3428)">Compression Algorithm</text><text font-family="Arial,Arial_MSFontService,sans-serif" font-weight="400" font-size="74" transform="matrix(1 0 0 1 7515.29 4669)">Decompression Algorithm</text><rect x="9709" y="3567" width="531" height="280" stroke="#4990D7" stroke-width="13.75" stroke-linejoin="round" stroke-miterlimit="10" fill="#FFFFFF"/><text font-family="Arial,Arial_MSFontService,sans-serif" font-weight="700" font-size="64" transform="matrix(1 0 0 1 9780.89 3692)">Compressed </text><text font-family="Arial,Arial_MSFontService,sans-serif" font-weight="700" font-size="64" transform="matrix(1 0 0 1 9905.51 3769)">Data</text><rect x="6152.5" y="3333.5" width="3557" height="586" stroke="#7F7F7F" stroke-width="6.875" stroke-linejoin="round" stroke-miterlimit="10" stroke-dasharray="6.875 6.875" fill="none"/><rect x="6151.5" y="4180.5" width="3558" height="586" stroke="#7F7F7F" stroke-width="6.875" stroke-linejoin="round" stroke-miterlimit="10" stroke-dasharray="6.875 6.875" fill="none"/><text font-family="Arial,Arial_MSFontService,sans-serif" font-weight="700" font-size="110" transform="matrix(1 0 0 1 8295.85 3714)">...</text><text font-family="Arial,Arial_MSFontService,sans-serif" font-weight="700" font-size="110" transform="matrix(1 0 0 1 8305.03 4402)">...</text><path d="M8432 3624 8706.01 3624 8706.01 3559 8836 3705.5 8706.01 3852 8706.01 3787 8432 3787Z" fill="#376092" fill-rule="evenodd"/><text fill="#F2F2F2" font-family="Arial,Arial_MSFontService,sans-serif" font-weight="400" font-size="73" transform="matrix(1 0 0 1 8485.8 3732)">Data</text><text fill="#F2F2F2" font-family="Arial,Arial_MSFontService,sans-serif" font-style="italic" font-weight="400" font-size="49" transform="matrix(1 0 0 1 8640.49 3749)">n</text><text fill="#F2F2F2" font-family="Arial,Arial_MSFontService,sans-serif" font-weight="400" font-size="49" transform="matrix(1 0 0 1 8667.42 3749)">-</text><text fill="#F2F2F2" font-family="Arial,Arial_MSFontService,sans-serif" font-weight="400" font-size="49" transform="matrix(1 0 0 1 8683.46 3749)">1</text><path d="M0 64.9961 237.008 64.9961 237.008 0 367 146.5 237.008 293 237.008 228.004 0 228.004Z" fill="#948A54" fill-rule="evenodd" transform="matrix(-1 0 0 1 6522 4252)"/><text fill="#F2F2F2" font-family="Arial,Arial_MSFontService,sans-serif" font-weight="400" font-size="73" transform="matrix(1 0 0 1 6283.82 4426)">Data</text><text fill="#F2F2F2" font-family="Arial,Arial_MSFontService,sans-serif" font-weight="400" font-size="49" transform="matrix(1 0 0 1 6438.51 4443)">0</text><rect x="5621" y="4259" width="531" height="280" stroke="#948A54" stroke-width="13.75" stroke-linejoin="round" stroke-miterlimit="10" fill="#FFFFFF"/><text font-family="Arial,Arial_MSFontService,sans-serif" font-weight="700" font-size="64" transform="matrix(1 0 0 1 5657.15 4384)">Decompressed </text><text font-family="Arial,Arial_MSFontService,sans-serif" font-weight="700" font-size="64" transform="matrix(1 0 0 1 5817.3 4461)">Data</text><path d="M5928.18 2487.4C5903.86 2358.29 6029.08 2239.39 6207.87 2221.83 6280.32 2214.72 6353.98 2225.35 6417.06 2252.04 6483.91 2161.05 6640.11 2126.47 6765.96 2174.8 6787.96 2183.26 6808.16 2193.97 6825.91 2206.61 6877.97 2131.18 7004.78 2100.54 7109.15 2138.16 7138.03 2148.58 7163.23 2163.64 7182.81 2182.19 7266.72 2110.86 7415 2102.05 7513.99 2162.51 7555.6 2187.92 7583.65 2222.97 7593.31 2261.64 7730.8 2288.73 7811.91 2391.35 7774.47 2490.84 7771.33 2499.21 7767.38 2507.4 7762.66 2515.37 7872.92 2619.04 7845.93 2767.63 7702.37 2847.26 7657.68 2872.04 7604.89 2888.09 7549.11 2893.85 7547.87 3005.39 7421.56 3095.08 7267 3094.18 7215.36 3093.88 7164.84 3083.28 7121.03 3063.54 7068.75 3188.59 6886.39 3259.26 6713.73 3221.4 6641.36 3205.54 6578.84 3171.98 6536.82 3126.46 6360.03 3203.47 6130.56 3162.05 6024.29 3033.94 6022.95 3032.32 6021.63 3030.7 6020.34 3029.06 5904.64 3038.84 5799.83 2979.22 5786.25 2895.88 5779.02 2851.47 5799.32 2807.01 5841.75 2774.36 5741.57 2731.76 5707.92 2638.27 5766.59 2565.54 5800.43 2523.58 5859.8 2495.84 5926.42 2490.85Z" stroke="#000000" stroke-width="3.4375" stroke-linejoin="round" stroke-miterlimit="10" fill="#FFFFCC" fill-rule="evenodd"/><path d="M5966.55 2790.5C5923.78 2792.92 5881.01 2785.78 5843.99 2770.04M6074.67 3014.4C6057.48 3019.35 6039.45 3022.64 6021.06 3024.19M6536.7 3121.99C6523.76 3107.98 6512.93 3093 6504.39 3077.32M7134.14 3010.6C7132.24 3027.22 7127.91 3043.65 7121.24 3059.62M7390.65 2707.76C7487.62 2741.84 7548.82 2813.11 7547.95 2890.94M7761.67 2512.66C7745.97 2539.16 7721.99 2562.67 7691.63 2581.35M7593.6 2257.79C7596.28 2268.5 7597.52 2279.36 7597.3 2290.23M7146.28 2219.95C7155.41 2204.99 7167.5 2191.05 7182.17 2178.58M6810.67 2239.67C6814.4 2227.3 6820.23 2215.32 6828.05 2203.99M6416.81 2251.79C6439.64 2261.44 6460.76 2273.07 6479.7 2286.4M5939.16 2523.82C5934.18 2511.91 5930.51 2499.73 5928.19 2487.41" stroke="#000000" stroke-width="3.4375" stroke-linejoin="round" stroke-miterlimit="10" fill="none" fill-rule="evenodd"/><text font-family="Arial,Arial_MSFontService,sans-serif" font-weight="700" font-size="83" transform="matrix(1 0 0 1 6455.06 2360)">Preprocessor library</text><path d="M6403.6 3051.67 6614.69 3468.85 6605.49 3473.5 6394.4 3056.33ZM6621.57 3459.59 6621.73 3494.18 6593.96 3473.56Z"/><path d="M7316.85 3018.24 7478.06 3462.2 7468.37 3465.72 7307.15 3021.76ZM7485.99 3453.83 7482.01 3488.19 7456.91 3464.39Z"/><path d="M6916.88 3076.33 6930.24 3115.35 6920.49 3118.7 6907.12 3079.67ZM6940.27 3144.62 6953.63 3183.65 6943.87 3186.99 6930.51 3147.96ZM6963.65 3212.92 6977.02 3251.94 6967.26 3255.28 6953.9 3216.26ZM6987.04 3281.21 7000.4 3320.24 6990.65 3323.58 6977.28 3284.55ZM7010.43 3349.51 7023.79 3388.53 7014.04 3391.87 7000.67 3352.85ZM7033.81 3417.8 7046.33 3454.35 7036.58 3457.69 7024.06 3421.14ZM7054.42 3446.13 7049.81 3480.41 7025.15 3456.16Z"/><path d="M5.13261-0.493199 39.8421 360.72 29.5769 361.707-5.13261 0.493199ZM49.6142 354.602 37.1755 386.877 18.8185 357.561Z" transform="matrix(-1 0 0 1 8552.18 3093)"/><path d="M4.82782-1.81082 165.77 427.277 156.114 430.899-4.82782 1.81082ZM173.615 418.828 169.996 453.227 144.648 429.693Z" transform="matrix(-1 0 0 1 9561 3035)"/><path d="M4.89132-1.63154 17.9436 37.499 8.16096 40.7621-4.89132 1.63154ZM27.7328 66.8469 40.7851 105.977 31.0025 109.241 17.9502 70.11ZM50.5743 135.325 63.6266 174.456 53.8439 177.719 40.7917 138.588ZM73.4158 203.804 86.4681 242.934 76.6854 246.197 63.6332 207.067ZM96.2573 272.282 109.31 311.413 99.5269 314.676 86.4747 275.545ZM119.099 340.761 125.723 360.619 115.94 363.882 109.316 344.024ZM133.874 352.465 128.989 386.707 104.526 362.254Z" transform="matrix(-1 0 0 1 8888.99 3087)"/><path d="M5.05152-1.03396 83.4369 381.926 73.3339 383.994-5.05152 1.03396ZM92.506 374.807 83.5553 408.218 62.1969 381.01Z" transform="matrix(-1 0 0 1 9171.56 3073)"/><path d="M6039 2455.33C6039 2433.06 6057.06 2415 6079.33 2415L6381.67 2415C6403.94 2415 6422 2433.06 6422 2455.33L6422 2616.67C6422 2638.94 6403.94 2657 6381.67 2657L6079.33 2657C6057.06 2657 6039 2638.94 6039 2616.67Z" stroke="#604A7B" stroke-width="13.75" stroke-linejoin="round" stroke-miterlimit="10" fill="none" fill-rule="evenodd"/><text font-family="Arial,Arial_MSFontService,sans-serif" font-weight="700" font-size="64" transform="matrix(1 0 0 1 6162.87 2559)">ABS</text><path d="M6585 2528.5C6585 2506.13 6603.13 2488 6625.5 2488L6926.5 2488C6948.87 2488 6967 2506.13 6967 2528.5L6967 2690.5C6967 2712.87 6948.87 2731 6926.5 2731L6625.5 2731C6603.13 2731 6585 2712.87 6585 2690.5Z" stroke="#604A7B" stroke-width="13.75" stroke-linejoin="round" stroke-miterlimit="10" fill="none" fill-rule="evenodd"/><text font-family="Arial,Arial_MSFontService,sans-serif" font-weight="700" font-size="64" transform="matrix(1 0 0 1 6711.74 2633)">REL</text><path d="M7156 2446.33C7156 2424.06 7174.06 2406 7196.33 2406L7498.67 2406C7520.94 2406 7539 2424.06 7539 2446.33L7539 2607.67C7539 2629.94 7520.94 2648 7498.67 2648L7196.33 2648C7174.06 2648 7156 2629.94 7156 2607.67Z" stroke="#604A7B" stroke-width="13.75" stroke-linejoin="round" stroke-miterlimit="10" fill="none" fill-rule="evenodd"/><text font-family="Arial,Arial_MSFontService,sans-serif" font-weight="700" font-size="64" transform="matrix(1 0 0 1 7283.62 2550)">R2R</text><path d="M6170 2809.33C6170 2787.06 6188.06 2769 6210.33 2769L6511.67 2769C6533.94 2769 6552 2787.06 6552 2809.33L6552 2970.67C6552 2992.94 6533.94 3011 6511.67 3011L6210.33 3011C6188.06 3011 6170 2992.94 6170 2970.67Z" stroke="#604A7B" stroke-width="13.75" stroke-linejoin="round" stroke-miterlimit="10" fill="none" fill-rule="evenodd"/><text font-family="Arial,Arial_MSFontService,sans-serif" font-weight="700" font-size="64" transform="matrix(1 0 0 1 6220.19 2913)">ABS/REL</text><path d="M6838 2837.33C6838 2815.06 6856.06 2797 6878.33 2797L7180.67 2797C7202.94 2797 7221 2815.06 7221 2837.33L7221 2998.67C7221 3020.94 7202.94 3039 7180.67 3039L6878.33 3039C6856.06 3039 6838 3020.94 6838 2998.67Z" stroke="#604A7B" stroke-width="13.75" stroke-linejoin="round" stroke-miterlimit="10" fill="none" fill-rule="evenodd"/><text font-family="Arial,Arial_MSFontService,sans-serif" font-weight="700" font-size="64" transform="matrix(1 0 0 1 6958.17 2942)">BMP</text><text font-family="Arial,Arial_MSFontService,sans-serif" font-weight="700" font-size="83" transform="matrix(1 0 0 1 8696.67 2349)">Component library</text><path d="M8264 2493.5C8264 2471.13 8282.13 2453 8304.5 2453L8606.5 2453C8628.87 2453 8647 2471.13 8647 2493.5L8647 2655.5C8647 2677.87 8628.87 2696 8606.5 2696L8304.5 2696C8282.13 2696 8264 2677.87 8264 2655.5Z" stroke="#604A7B" stroke-width="13.75" stroke-linejoin="round" stroke-miterlimit="10" fill="none" fill-rule="evenodd"/><text font-family="Arial,Arial_MSFontService,sans-serif" font-weight="700" font-size="64" transform="matrix(1 0 0 1 8391.37 2598)">RLE</text><path d="M8897 2442.5C8897 2420.13 8915.13 2402 8937.5 2402L9238.5 2402C9260.87 2402 9279 2420.13 9279 2442.5L9279 2604.5C9279 2626.87 9260.87 2645 9238.5 2645L8937.5 2645C8915.13 2645 8897 2626.87 8897 2604.5Z" stroke="#604A7B" stroke-width="13.75" stroke-linejoin="round" stroke-miterlimit="10" fill="none" fill-rule="evenodd"/><text font-family="Arial,Arial_MSFontService,sans-serif" font-weight="700" font-size="64" transform="matrix(1 0 0 1 8979.59 2547)">Shuffle</text><path d="M9498 2478.33C9498 2456.06 9516.06 2438 9538.33 2438L9839.67 2438C9861.94 2438 9880 2456.06 9880 2478.33L9880 2639.67C9880 2661.94 9861.94 2680 9839.67 2680L9538.33 2680C9516.06 2680 9498 2661.94 9498 2639.67Z" stroke="#604A7B" stroke-width="13.75" stroke-linejoin="round" stroke-miterlimit="10" fill="none" fill-rule="evenodd"/><text font-family="Arial,Arial_MSFontService,sans-serif" font-weight="700" font-size="64" transform="matrix(1 0 0 1 9649.88 2583)">LZ</text><path d="M8509 2835.33C8509 2813.06 8527.06 2795 8549.33 2795L8851.67 2795C8873.94 2795 8892 2813.06 8892 2835.33L8892 2996.67C8892 3018.94 8873.94 3037 8851.67 3037L8549.33 3037C8527.06 3037 8509 3018.94 8509 2996.67Z" stroke="#604A7B" stroke-width="13.75" stroke-linejoin="round" stroke-miterlimit="10" fill="none" fill-rule="evenodd"/><text font-family="Arial,Arial_MSFontService,sans-serif" font-weight="700" font-size="64" transform="matrix(1 0 0 1 8656.36 2940)">. . .</text><path d="M9062 2769.33C9062 2747.06 9080.06 2729 9102.33 2729L9403.67 2729C9425.94 2729 9444 2747.06 9444 2769.33L9444 2930.67C9444 2952.94 9425.94 2971 9403.67 2971L9102.33 2971C9080.06 2971 9062 2952.94 9062 2930.67Z" stroke="#604A7B" stroke-width="13.75" stroke-linejoin="round" stroke-miterlimit="10" fill="none" fill-rule="evenodd"/><text font-family="Arial,Arial_MSFontService,sans-serif" font-weight="700" font-size="64" transform="matrix(1 0 0 1 9174.82 2874)">Delta</text></g></svg>