<svg width="1363" height="787" xmlns="http://www.w3.org/2000/svg" xmlns:xlink="http://www.w3.org/1999/xlink" overflow="hidden"><g><rect x="0" y="0" width="1363" height="786.93" fill="#FFFFFF"/><path d="M752.125 117.271C745.213 80.6029 780.802 46.8344 831.616 41.8466 852.207 39.8256 873.141 42.8469 891.071 50.4271 910.069 24.5845 954.464 14.763 990.229 28.4902 996.483 30.8905 1002.22 33.9328 1007.27 37.5223 1022.07 16.1007 1058.11 7.39771 1087.77 18.0835 1095.98 21.041 1103.14 25.3184 1108.7 30.587 1132.55 10.329 1174.69 7.82667 1202.83 24.9978 1214.66 32.2147 1222.63 42.1689 1225.37 53.1536 1264.45 60.8478 1287.5 89.9924 1276.86 118.25 1275.97 120.625 1274.84 122.953 1273.5 125.216 1304.84 154.66 1297.17 196.862 1256.37 219.476 1243.67 226.516 1228.66 231.074 1212.81 232.71 1212.46 264.387 1176.56 289.86 1132.63 289.606 1117.95 289.521 1103.6 286.51 1091.15 280.905 1076.29 316.419 1024.46 336.492 975.385 325.739 954.818 321.233 937.049 311.703 925.106 298.775 874.861 320.647 809.644 308.881 779.44 272.496 779.059 272.037 778.685 271.576 778.318 271.111 745.434 273.889 715.648 256.955 711.788 233.287 709.731 220.672 715.501 208.045 727.561 198.771 699.089 186.674 689.524 160.121 706.198 139.464 715.818 127.547 732.689 119.668 751.625 118.252Z" stroke="#000000" stroke-width="0.999878" stroke-linejoin="round" stroke-miterlimit="10" fill="#C6D9F1" fill-rule="evenodd"/><path d="M763.029 203.356C750.873 204.043 738.719 202.015 728.198 197.545M793.76 266.948C788.872 268.352 783.748 269.288 778.521 269.729M925.073 297.505C921.396 293.525 918.318 289.272 915.89 284.818M1094.87 265.869C1094.33 270.59 1093.1 275.256 1091.2 279.789M1167.77 179.857C1195.33 189.538 1212.73 209.777 1212.48 231.883M1273.22 124.445C1268.76 131.972 1261.95 138.65 1253.32 143.954M1225.45 52.0599C1226.22 55.0996 1226.57 58.185 1226.51 61.2733M1098.32 41.313C1100.92 37.0624 1104.35 33.1047 1108.52 29.5632M1002.94 46.9125C1004 43.3998 1005.66 39.9959 1007.88 36.7791M891 50.3538C897.487 53.0966 903.489 56.3978 908.873 60.1849M755.246 127.617C753.83 124.234 752.787 120.775 752.127 117.273" stroke="#000000" stroke-width="0.999878" stroke-linejoin="round" stroke-miterlimit="10" fill="none" fill-rule="evenodd"/><path d="M0 18.4102 77.1694 18.4102 77.1694 0 113.99 41.4963 77.1694 82.9925 77.1694 64.5823 0 64.5823Z" fill="#376092" fill-rule="evenodd" transform="matrix(-1.00009 0 0 1 941 616.945)"/><text fill="#F2F2F2" font-family="Arial,Arial_MSFontService,sans-serif" font-weight="400" font-size="21" transform="matrix(1 0 0 0.99991 862.269 666)">Data</text><text fill="#F2F2F2" font-family="Arial,Arial_MSFontService,sans-serif" font-weight="400" font-size="14" transform="matrix(1 0 0 0.99991 906.097 670)">n</text><text fill="#F2F2F2" font-family="Arial,Arial_MSFontService,sans-serif" font-weight="400" font-size="14" transform="matrix(1 0 0 0.99991 913.763 670)">-</text><text fill="#F2F2F2" font-family="Arial,Arial_MSFontService,sans-serif" font-weight="400" font-size="14" transform="matrix(1 0 0 0.99991 918.429 670)">1</text><path d="M1085 440.372 1151.18 440.372 1151.18 421.962 1188 463.459 1151.18 504.955 1151.18 486.545 1085 486.545Z" fill="#4990D7" fill-rule="evenodd"/><text fill="#F2F2F2" font-family="Arial,Arial_MSFontService,sans-serif" font-weight="400" font-size="21" transform="matrix(1 0 0 0.99991 1100.6 471)">Data</text><text fill="#F2F2F2" font-family="Arial,Arial_MSFontService,sans-serif" font-style="italic" font-weight="400" font-size="14" transform="matrix(1 0 0 0.99991 1144.43 475)">n</text><path d="M942 431.628C942 422.977 949.014 415.963 957.667 415.963L1067.33 415.963C1075.99 415.963 1083 422.977 1083 431.628L1083 494.289C1083 502.941 1075.99 509.954 1067.33 509.954L957.667 509.954C949.014 509.954 942 502.941 942 494.289Z" stroke="#604A7B" stroke-width="3.99951" stroke-linejoin="round" stroke-miterlimit="10" fill="none" fill-rule="evenodd"/><text font-family="Arial,Arial_MSFontService,sans-serif" font-weight="700" font-size="18" transform="matrix(1 0 0 0.99991 959.437 470)">Transform</text><text font-family="Arial,Arial_MSFontService,sans-serif" font-style="italic" font-weight="700" font-size="18" transform="matrix(1 0 0 0.99991 1054.76 470)">n</text><path d="M672 440.372 740.176 440.372 740.176 421.962 777 463.459 740.176 504.955 740.176 486.545 672 486.545Z" fill="#254061" fill-rule="evenodd"/><text fill="#F2F2F2" font-family="Arial,Arial_MSFontService,sans-serif" font-weight="400" font-size="21" transform="matrix(1 0 0 0.99991 688.834 471)">Data</text><text fill="#F2F2F2" font-family="Arial,Arial_MSFontService,sans-serif" font-weight="400" font-size="14" transform="matrix(1 0 0 0.99991 732.662 475)">2</text><path d="M531 431.628C531 422.977 538.014 415.963 546.667 415.963L656.333 415.963C664.986 415.963 672 422.977 672 431.628L672 494.289C672 502.941 664.986 509.954 656.333 509.954L546.667 509.954C538.014 509.954 531 502.941 531 494.289Z" stroke="#604A7B" stroke-width="3.99951" stroke-linejoin="round" stroke-miterlimit="10" fill="none" fill-rule="evenodd"/><text font-family="Arial,Arial_MSFontService,sans-serif" font-weight="700" font-size="18" transform="matrix(1 0 0 0.99991 548.822 470)">Transform 2</text><path d="M428 440.372 494.176 440.372 494.176 421.962 531 463.459 494.176 504.955 494.176 486.545 428 486.545Z" fill="#C4BD97" fill-rule="evenodd"/><text fill="#F2F2F2" font-family="Arial,Arial_MSFontService,sans-serif" font-weight="400" font-size="21" transform="matrix(1 0 0 0.99991 443.552 471)">Data</text><text fill="#F2F2F2" font-family="Arial,Arial_MSFontService,sans-serif" font-weight="400" font-size="14" transform="matrix(1 0 0 0.99991 487.38 475)">1</text><path d="M286 431.628C286 422.977 293.014 415.963 301.667 415.963L411.333 415.963C419.986 415.963 427 422.977 427 431.628L427 494.289C427 502.941 419.986 509.954 411.333 509.954L301.667 509.954C293.014 509.954 286 502.941 286 494.289Z" stroke="#604A7B" stroke-width="3.99951" stroke-linejoin="round" stroke-miterlimit="10" fill="none" fill-rule="evenodd"/><text font-family="Arial,Arial_MSFontService,sans-serif" font-weight="700" font-size="18" transform="matrix(1 0 0 0.99991 303.444 470)">Transform 1</text><path d="M286 627.611C286 618.959 293.014 611.945 301.667 611.945L411.333 611.945C419.986 611.945 427 618.959 427 627.611L427 690.271C427 698.923 419.986 705.937 411.333 705.937L301.667 705.937C293.014 705.937 286 698.923 286 690.271Z" stroke="#604A7B" stroke-width="3.99951" stroke-linejoin="round" stroke-miterlimit="10" fill="none" fill-rule="evenodd"/><text font-family="Arial,Arial_MSFontService,sans-serif" font-weight="700" font-size="18" transform="matrix(1 0 0 0.99991 324.838 655)">Inverse</text><text font-family="Arial,Arial_MSFontService,sans-serif" font-weight="700" font-size="18" transform="matrix(1 0 0 0.99991 304.093 677)">Transform 1</text><path d="M0 18.4102 66.1703 18.4102 66.1703 0 102.991 41.4963 66.1703 82.9925 66.1703 64.5823 0 64.5823Z" fill="#C4BD97" fill-rule="evenodd" transform="matrix(-1.00009 0 0 1 531 616.945)"/><text fill="#F2F2F2" font-family="Arial,Arial_MSFontService,sans-serif" font-weight="400" font-size="21" transform="matrix(1 0 0 0.99991 464.283 666)">Data</text><text fill="#F2F2F2" font-family="Arial,Arial_MSFontService,sans-serif" font-weight="400" font-size="14" transform="matrix(1 0 0 0.99991 508.111 670)">1</text><path d="M532 627.611C532 618.959 539.014 611.945 547.667 611.945L657.333 611.945C665.986 611.945 673 618.959 673 627.611L673 690.271C673 698.923 665.986 705.937 657.333 705.937L547.667 705.937C539.014 705.937 532 698.923 532 690.271Z" stroke="#604A7B" stroke-width="3.99951" stroke-linejoin="round" stroke-miterlimit="10" fill="none" fill-rule="evenodd"/><text font-family="Arial,Arial_MSFontService,sans-serif" font-weight="700" font-size="18" transform="matrix(1 0 0 0.99991 570.298 655)">Inverse</text><text font-family="Arial,Arial_MSFontService,sans-serif" font-weight="700" font-size="18" transform="matrix(1 0 0 0.99991 549.554 677)">Transform 2</text><path d="M0 18.4102 68.1702 18.4102 68.1702 0 104.991 41.4963 68.1702 82.9925 68.1702 64.5823 0 64.5823Z" fill="#254061" fill-rule="evenodd" transform="matrix(-1.00009 0 0 1 777 616.945)"/><text fill="#F2F2F2" font-family="Arial,Arial_MSFontService,sans-serif" font-weight="400" font-size="21" transform="matrix(1 0 0 0.99991 709.37 666)">Data</text><text fill="#F2F2F2" font-family="Arial,Arial_MSFontService,sans-serif" font-weight="400" font-size="14" transform="matrix(1 0 0 0.99991 753.198 670)">2</text><path d="M942 627.611C942 618.959 949.014 611.945 957.667 611.945L1067.33 611.945C1075.99 611.945 1083 618.959 1083 627.611L1083 690.271C1083 698.923 1075.99 705.937 1067.33 705.937L957.667 705.937C949.014 705.937 942 698.923 942 690.271Z" stroke="#604A7B" stroke-width="3.99951" stroke-linejoin="round" stroke-miterlimit="10" fill="none" fill-rule="evenodd"/><text font-family="Arial,Arial_MSFontService,sans-serif" font-weight="700" font-size="18" transform="matrix(1 0 0 0.99991 980.681 655)">Inverse</text><text font-family="Arial,Arial_MSFontService,sans-serif" font-weight="700" font-size="18" transform="matrix(1 0 0 0.99991 959.437 677)">Transform</text><text font-family="Arial,Arial_MSFontService,sans-serif" font-style="italic" font-weight="700" font-size="18" transform="matrix(1 0 0 0.99991 1054.76 677)">n</text><rect x="28" y="422.962" width="151" height="79.9928" stroke="#948A54" stroke-width="3.99951" stroke-linejoin="round" stroke-miterlimit="10" fill="#FFFFFF"/><text font-family="Arial,Arial_MSFontService,sans-serif" font-weight="700" font-size="18" transform="matrix(1 0 0 0.99991 47.1208 470)">Original Data</text><path d="M181 440.373 248.176 440.373 248.176 421.962 285 463.459 248.176 504.955 248.176 486.545 181 486.545Z" fill="#948A54" fill-rule="evenodd"/><text fill="#F2F2F2" font-family="Arial,Arial_MSFontService,sans-serif" font-weight="400" font-size="21" transform="matrix(1 0 0 0.99991 197.068 471)">Data</text><text fill="#F2F2F2" font-family="Arial,Arial_MSFontService,sans-serif" font-weight="400" font-size="14" transform="matrix(1 0 0 0.99991 240.896 475)">0</text><path d="M0 18.4102 163.162 18.4102 163.162 0 199.982 41.4964 163.162 82.9925 163.162 64.5823 0 64.5823Z" fill="#4990D7" fill-rule="evenodd" transform="matrix(-1.00009 0 0 1 1283 616.945)"/><text fill="#F2F2F2" font-family="Arial,Arial_MSFontService,sans-serif" font-weight="400" font-size="21" transform="matrix(1 0 0 0.99991 1113.31 666)">Data</text><text fill="#F2F2F2" font-family="Arial,Arial_MSFontService,sans-serif" font-style="italic" font-weight="400" font-size="14" transform="matrix(1 0 0 0.99991 1157.14 670)">n</text><rect x="1246" y="503.955" width="37" height="152.986" fill="#4990D7"/><text font-family="Arial,Arial_MSFontService,sans-serif" font-weight="400" font-size="21" transform="matrix(1 0 0 0.99991 576.499 384)">Compression Algorithm</text><text font-family="Arial,Arial_MSFontService,sans-serif" font-weight="400" font-size="21" transform="matrix(1 0 0 0.99991 566.287 736)">Decompression Algorithm</text><rect x="1189" y="422.962" width="151" height="79.9928" stroke="#4990D7" stroke-width="3.99951" stroke-linejoin="round" stroke-miterlimit="10" fill="#FFFFFF"/><text font-family="Arial,Arial_MSFontService,sans-serif" font-weight="700" font-size="18" transform="matrix(1 0 0 0.99991 1209.14 459)">Compressed</text><text font-family="Arial,Arial_MSFontService,sans-serif" font-weight="700" font-size="18" transform="matrix(1 0 0 0.99991 1244.72 481)">Data</text><rect x="179" y="356.968" width="1010" height="166.985" stroke="#7F7F7F" stroke-width="1.99976" stroke-linejoin="round" stroke-miterlimit="10" stroke-dasharray="1.99976 1.99976" fill="none"/><rect x="179" y="597.946" width="1010" height="165.985" stroke="#7F7F7F" stroke-width="1.99976" stroke-linejoin="round" stroke-miterlimit="10" stroke-dasharray="1.99976 1.99976" fill="none"/><text font-family="Arial,Arial_MSFontService,sans-serif" font-weight="700" font-size="31" transform="matrix(1 0 0 0.99991 788.075 465)">...</text><text font-family="Arial,Arial_MSFontService,sans-serif" font-weight="700" font-size="31" transform="matrix(1 0 0 0.99991 790.68 660)">...</text><path d="M827 439.372 904.176 439.372 904.176 420.962 941 462.459 904.176 503.955 904.176 485.545 827 485.545Z" fill="#376092" fill-rule="evenodd"/><text fill="#F2F2F2" font-family="Arial,Arial_MSFontService,sans-serif" font-weight="400" font-size="21" transform="matrix(1 0 0 0.99991 841.733 470)">Data</text><text fill="#F2F2F2" font-family="Arial,Arial_MSFontService,sans-serif" font-style="italic" font-weight="400" font-size="14" transform="matrix(1 0 0 0.99991 885.561 474)">n</text><text fill="#F2F2F2" font-family="Arial,Arial_MSFontService,sans-serif" font-weight="400" font-size="14" transform="matrix(1 0 0 0.99991 893.227 474)">-</text><text fill="#F2F2F2" font-family="Arial,Arial_MSFontService,sans-serif" font-weight="400" font-size="14" transform="matrix(1 0 0 0.99991 897.893 474)">1</text><path d="M0 18.4102 67.1702 18.4102 67.1702 0 103.991 41.4963 67.1702 82.9925 67.1702 64.5823 0 64.5823Z" fill="#948A54" fill-rule="evenodd" transform="matrix(-1.00009 0 0 1 284 617.945)"/><text fill="#F2F2F2" font-family="Arial,Arial_MSFontService,sans-serif" font-weight="400" font-size="21" transform="matrix(1 0 0 0.99991 216.708 667)">Data</text><text fill="#F2F2F2" font-family="Arial,Arial_MSFontService,sans-serif" font-weight="400" font-size="14" transform="matrix(1 0 0 0.99991 260.536 671)">0</text><rect x="29" y="619.945" width="150" height="79.9928" stroke="#948A54" stroke-width="3.99951" stroke-linejoin="round" stroke-miterlimit="10" fill="#FFFFFF"/><text font-family="Arial,Arial_MSFontService,sans-serif" font-weight="700" font-size="18" transform="matrix(1 0 0 0.99991 38.4245 656)">Decompressed</text><text font-family="Arial,Arial_MSFontService,sans-serif" font-weight="700" font-size="18" transform="matrix(1 0 0 0.99991 84.1723 678)">Data</text><path d="M116.035 117.271C109.134 80.6029 144.664 46.8344 195.392 41.8466 215.948 39.8256 236.847 42.8469 254.746 50.4271 273.713 24.5845 318.033 14.763 353.738 28.4902 359.982 30.8905 365.712 33.9328 370.75 37.5223 385.522 16.1007 421.501 7.39771 451.113 18.0835 459.309 21.041 466.459 25.3184 472.012 30.587 495.821 10.329 537.892 7.82667 565.981 24.9978 577.786 32.2147 585.743 42.1689 588.487 53.1536 627.496 60.8478 650.51 89.9924 639.888 118.25 638.995 120.625 637.874 122.953 636.535 125.216 667.821 154.66 660.162 196.862 619.428 219.476 606.748 226.516 591.771 231.074 575.944 232.71 575.592 264.387 539.755 289.86 495.9 289.606 481.247 289.521 466.913 286.51 454.484 280.905 439.651 316.419 387.91 336.492 338.919 325.739 318.387 321.233 300.647 311.703 288.725 298.775 238.564 320.647 173.457 308.881 143.304 272.496 142.924 272.037 142.55 271.576 142.184 271.111 109.355 273.889 79.6189 256.955 75.7659 233.287 73.7122 220.672 79.4726 208.045 91.5122 198.771 63.0877 186.674 53.5394 160.121 70.1854 139.464 79.7888 127.547 96.6318 119.668 115.535 118.252Z" stroke="#000000" stroke-width="0.999878" stroke-linejoin="round" stroke-miterlimit="10" fill="#FFFFCC" fill-rule="evenodd"/><path d="M126.92 203.356C114.785 204.043 102.652 202.015 92.1484 197.545M157.6 266.948C152.72 268.352 147.605 269.288 142.386 269.729M288.691 297.505C285.021 293.525 281.948 289.272 279.524 284.818M458.204 265.869C457.664 270.59 456.437 275.256 454.544 279.789M530.984 179.857C558.498 189.538 575.861 209.777 575.615 231.883M636.255 124.445C631.799 131.972 624.997 138.65 616.381 143.954M588.568 52.0599C589.327 55.0996 589.678 58.185 589.617 61.2733M461.649 41.313C464.239 37.0624 467.668 33.1047 471.83 29.5632M366.426 46.9125C367.483 43.3998 369.139 39.9959 371.357 36.7791M254.676 50.3538C261.152 53.0966 267.144 56.3978 272.519 60.1849M119.151 127.617C117.737 124.234 116.696 120.775 116.037 117.273" stroke="#000000" stroke-width="0.999878" stroke-linejoin="round" stroke-miterlimit="10" fill="none" fill-rule="evenodd"/><text font-family="Arial,Arial_MSFontService,sans-serif" font-weight="700" font-size="23" transform="matrix(1 0 0 0.99991 265.519 81)">Preprocessor library</text><path d="M250.838 277.798 310.682 396.054 308.005 397.408 248.162 279.152ZM312.681 393.361 312.729 403.421 304.651 397.424Z"/><path d="M509.91 267.964 555.613 393.813 552.794 394.836 507.09 268.988ZM557.921 391.379 556.763 401.372 549.462 394.45Z"/><path d="M396.919 284.989 400.806 296.339 397.968 297.311 394.081 285.96ZM403.722 304.852 407.609 316.202 404.771 317.174 400.884 305.823ZM410.524 324.715 414.412 336.065 411.574 337.037 407.687 325.687ZM417.327 344.578 421.214 355.928 418.377 356.9 414.489 345.55ZM424.13 364.441 428.017 375.792 425.179 376.763 421.292 365.413ZM430.933 384.304 433.61 392.121 430.772 393.092 428.095 385.276ZM435.961 389.73 434.62 399.7 427.448 392.645Z"/><path d="M1.49281-0.143445 11.3279 102.208 8.34227 102.495-1.49281 0.143445ZM14.1701 100.429 10.5523 109.816 5.21321 101.289Z" transform="matrix(-1.00009 0 0 1 861.053 289.474)"/><path d="M1.40416-0.526672 47.0246 121.102 44.2162 122.155-1.40416 0.526672ZM49.3062 118.644 48.2537 128.649 40.8812 121.804Z" transform="matrix(-1.00009 0 0 1 1147.76 272.476)"/><path d="M1.42263-0.474528 5.21885 10.9065 2.3736 11.8556-1.42263 0.474528ZM8.06602 19.4423 11.8622 30.8233 9.01699 31.7723 5.22077 20.3913ZM14.7094 39.3591 18.5056 50.7401 15.6604 51.6891 11.8642 40.3081ZM21.3528 59.2759 25.149 70.6569 22.3038 71.6059 18.5076 60.2249ZM27.9962 79.1926 31.7924 90.5737 28.9472 91.5227 25.1509 80.1417ZM34.6396 99.1094 35.6637 102.18 32.8185 103.129 31.7943 100.058ZM38.0345 99.8082 36.6138 109.768 29.4987 102.655Z" transform="matrix(-1.00009 0 0 1 957.117 287.474)"/><path d="M1.46922-0.300725 23.6829 108.226 20.7445 108.828-1.46922 0.300725ZM26.3206 106.156 23.7173 115.873 17.5053 107.96Z" transform="matrix(-1.00009 0 0 1 1037.22 283.475)"/><path d="M147 107.491C147 101.14 152.149 95.9914 158.5 95.9914L244.5 95.9914C250.851 95.9914 256 101.14 256 107.491L256 153.486C256 159.837 250.851 164.985 244.5 164.985L158.5 164.985C152.149 164.985 147 159.837 147 153.486Z" stroke="#604A7B" stroke-width="3.99951" stroke-linejoin="round" stroke-miterlimit="10" fill="none" fill-rule="evenodd"/><text font-family="Arial,Arial_MSFontService,sans-serif" font-weight="700" font-size="18" transform="matrix(1 0 0 0.99991 182.365 138)">ABS</text><path d="M302 128.489C302 122.138 307.149 116.99 313.5 116.99L399.5 116.99C405.851 116.99 411 122.138 411 128.489L411 174.484C411 180.835 405.851 185.983 399.5 185.983L313.5 185.983C307.149 185.983 302 180.835 302 174.484Z" stroke="#604A7B" stroke-width="3.99951" stroke-linejoin="round" stroke-miterlimit="10" fill="none" fill-rule="evenodd"/><text font-family="Arial,Arial_MSFontService,sans-serif" font-weight="700" font-size="18" transform="matrix(1 0 0 0.99991 338.119 159)">REL</text><path d="M464 105.491C464 99.1399 469.149 93.9915 475.5 93.9915L561.5 93.9915C567.851 93.9915 573 99.1399 573 105.491L573 151.486C573 157.837 567.851 162.985 561.5 162.985L475.5 162.985C469.149 162.985 464 157.837 464 151.486Z" stroke="#604A7B" stroke-width="3.99951" stroke-linejoin="round" stroke-miterlimit="10" fill="none" fill-rule="evenodd"/><text font-family="Arial,Arial_MSFontService,sans-serif" font-weight="700" font-size="18" transform="matrix(1 0 0 0.99991 498.464 135)">NOA</text><path d="M184 208.482C184 202.131 189.149 196.982 195.5 196.982L281.5 196.982C287.851 196.982 293 202.131 293 208.482L293 254.477C293 260.828 287.851 265.976 281.5 265.976L195.5 265.976C189.149 265.976 184 260.828 184 254.477Z" stroke="#604A7B" stroke-width="3.99951" stroke-linejoin="round" stroke-miterlimit="10" fill="none" fill-rule="evenodd"/><text font-family="Arial,Arial_MSFontService,sans-serif" font-weight="700" font-size="18" transform="matrix(1 0 0 0.99991 198.627 238)">ABS/REL</text><path d="M374 216.481C374 210.13 379.149 204.982 385.5 204.982L471.5 204.982C477.851 204.982 483 210.13 483 216.481L483 262.476C483 268.827 477.851 273.975 471.5 273.975L385.5 273.975C379.149 273.975 374 268.827 374 262.476Z" stroke="#604A7B" stroke-width="3.99951" stroke-linejoin="round" stroke-miterlimit="10" fill="none" fill-rule="evenodd"/><text font-family="Arial,Arial_MSFontService,sans-serif" font-weight="700" font-size="18" transform="matrix(1 0 0 0.99991 415.859 246)">. . .</text><text font-family="Arial,Arial_MSFontService,sans-serif" font-weight="700" font-size="23" transform="matrix(1 0 0 0.99991 901.859 78)">Component library</text><path d="M779 118.49C779 112.139 784.149 106.99 790.5 106.99L875.5 106.99C881.851 106.99 887 112.139 887 118.49L887 164.485C887 170.836 881.851 175.984 875.5 175.984L790.5 175.984C784.149 175.984 779 170.836 779 164.485Z" stroke="#604A7B" stroke-width="3.99951" stroke-linejoin="round" stroke-miterlimit="10" fill="none" fill-rule="evenodd"/><text font-family="Arial,Arial_MSFontService,sans-serif" font-weight="700" font-size="18" transform="matrix(1 0 0 0.99991 814.927 149)">RLE</text><path d="M958 104.491C958 98.14 963.149 92.9916 969.5 92.9916L1055.5 92.9916C1061.85 92.9916 1067 98.14 1067 104.491L1067 150.486C1067 156.837 1061.85 161.986 1055.5 161.986L969.5 161.986C963.149 161.986 958 156.837 958 150.486Z" stroke="#604A7B" stroke-width="3.99951" stroke-linejoin="round" stroke-miterlimit="10" fill="none" fill-rule="evenodd"/><text font-family="Arial,Arial_MSFontService,sans-serif" font-weight="700" font-size="18" transform="matrix(1 0 0 0.99991 981.851 134)">Shuffle</text><path d="M1129 114.49C1129 108.139 1134.15 102.991 1140.5 102.991L1226.5 102.991C1232.85 102.991 1238 108.139 1238 114.49L1238 160.485C1238 166.836 1232.85 171.985 1226.5 171.985L1140.5 171.985C1134.15 171.985 1129 166.836 1129 160.485Z" stroke="#604A7B" stroke-width="3.99951" stroke-linejoin="round" stroke-miterlimit="10" fill="none" fill-rule="evenodd"/><text font-family="Arial,Arial_MSFontService,sans-serif" font-weight="700" font-size="18" transform="matrix(1 0 0 0.99991 1171.62 144)">ZE</text><path d="M848 215.481C848 209.13 853.149 203.982 859.5 203.982L945.5 203.982C951.851 203.982 957 209.13 957 215.481L957 261.476C957 267.827 951.851 272.976 945.5 272.976L859.5 272.976C853.149 272.976 848 267.827 848 261.476Z" stroke="#604A7B" stroke-width="3.99951" stroke-linejoin="round" stroke-miterlimit="10" fill="none" fill-rule="evenodd"/><text font-family="Arial,Arial_MSFontService,sans-serif" font-weight="700" font-size="18" transform="matrix(1 0 0 0.99991 890.291 246)">. . .</text><path d="M1005 197.316C1005 191.057 1010.07 185.983 1016.33 185.983L1102.67 185.983C1108.93 185.983 1114 191.057 1114 197.316L1114 242.645C1114 248.904 1108.93 253.977 1102.67 253.977L1016.33 253.977C1010.07 253.977 1005 248.904 1005 242.645Z" stroke="#604A7B" stroke-width="3.99951" stroke-linejoin="round" stroke-miterlimit="10" fill="none" fill-rule="evenodd"/><text font-family="Arial,Arial_MSFontService,sans-serif" font-weight="700" font-size="18" transform="matrix(1 0 0 0.99991 1037.32 227)">Delta</text></g></svg>